<svg width="35" height="35" viewBox="0 0 35 35" fill="none" xmlns="http://www.w3.org/2000/svg">
<path fill-rule="evenodd" clip-rule="evenodd" d="M17.5 2.91602C17.8868 2.91602 18.2577 3.06966 18.5312 3.34315C18.8047 3.61664 18.9584 3.98757 18.9584 4.37435V5.9231C20.0137 6.05515 21.046 6.3309 22.0267 6.74268L22.7996 5.40393C22.8947 5.23674 23.0218 5.09 23.1738 4.97217C23.3258 4.85433 23.4997 4.76773 23.6853 4.71733C23.8709 4.66694 24.0646 4.65376 24.2553 4.67855C24.446 4.70334 24.63 4.76561 24.7965 4.86178C24.9631 4.95794 25.109 5.0861 25.2258 5.23888C25.3426 5.39166 25.4281 5.56603 25.4772 5.75197C25.5264 5.93791 25.5383 6.13173 25.5122 6.32228C25.4862 6.51283 25.4227 6.69635 25.3254 6.86227L24.5511 8.20393C25.3969 8.8456 26.1523 9.60247 26.7969 10.4498L28.1386 9.67393C28.3045 9.57666 28.488 9.51318 28.6785 9.48712C28.8691 9.46107 29.0629 9.47296 29.2489 9.52212C29.4348 9.57128 29.6092 9.65673 29.7619 9.77356C29.9147 9.89038 30.0429 10.0363 30.139 10.2028C30.2352 10.3694 30.2975 10.5533 30.3223 10.744C30.3471 10.9348 30.3339 11.1285 30.2835 11.3141C30.2331 11.4997 30.1465 11.6735 30.0287 11.8255C29.9108 11.9775 29.7641 12.1047 29.5969 12.1998L28.2552 12.9727C28.6621 13.9366 28.9421 14.9662 29.0763 16.041H30.625C31.0118 16.041 31.3827 16.1947 31.6562 16.4682C31.9297 16.7416 32.0834 17.1126 32.0834 17.4993C32.0834 17.8861 31.9297 18.2571 31.6562 18.5305C31.3827 18.804 31.0118 18.9577 30.625 18.9577H29.0763C28.9442 20.013 28.6685 21.0454 28.2567 22.026L29.5954 22.7989C29.7626 22.894 29.9094 23.0212 30.0272 23.1732C30.145 23.3252 30.2316 23.499 30.282 23.6846C30.3324 23.8702 30.3456 24.0639 30.3208 24.2547C30.296 24.4454 30.2338 24.6293 30.1376 24.7959C30.0414 24.9624 29.9133 25.1083 29.7605 25.2251C29.6077 25.342 29.4333 25.4274 29.2474 25.4766C29.0615 25.5257 28.8676 25.5376 28.6771 25.5116C28.4865 25.4855 28.303 25.422 28.1371 25.3248L26.7954 24.5504C26.1527 25.3979 25.3971 26.1535 24.5496 26.7962L25.3254 28.1379C25.4227 28.3038 25.4862 28.4873 25.5122 28.6779C25.5383 28.8684 25.5264 29.0623 25.4772 29.2482C25.4281 29.4341 25.3426 29.6085 25.2258 29.7613C25.109 29.9141 24.9631 30.0422 24.7965 30.1384C24.63 30.2345 24.446 30.2968 24.2553 30.3216C24.0646 30.3464 23.8709 30.3332 23.6853 30.2828C23.4997 30.2324 23.3258 30.1458 23.1738 30.028C23.0218 29.9102 22.8947 29.7634 22.7996 29.5962L22.0267 28.2546C21.0461 28.6668 20.0138 28.9431 18.9584 29.0756V30.6243C18.9584 31.0111 18.8047 31.3821 18.5312 31.6555C18.2577 31.929 17.8868 32.0827 17.5 32.0827C17.1132 32.0827 16.7423 31.929 16.4688 31.6555C16.1953 31.3821 16.0417 31.0111 16.0417 30.6243V29.0756C14.9863 28.9435 13.954 28.6678 12.9734 28.256L12.2004 29.5948C12.1054 29.762 11.9782 29.9087 11.8262 30.0265C11.6742 30.1444 11.5004 30.231 11.3148 30.2814C11.1292 30.3318 10.9354 30.3449 10.7447 30.3201C10.554 30.2954 10.3701 30.2331 10.2035 30.1369C10.0369 30.0408 9.89105 29.9126 9.77423 29.7598C9.6574 29.607 9.57195 29.4327 9.52279 29.2467C9.47363 29.0608 9.46174 28.867 9.48779 28.6764C9.51385 28.4859 9.57734 28.3023 9.6746 28.1364L10.449 26.7948C9.60149 26.152 8.84588 25.3964 8.20315 24.5489L6.86148 25.3248C6.69556 25.422 6.51205 25.4855 6.32149 25.5116C6.13094 25.5376 5.93712 25.5257 5.75118 25.4766C5.56525 25.4274 5.39087 25.342 5.23809 25.2251C5.08531 25.1083 4.95715 24.9624 4.86099 24.7959C4.76483 24.6293 4.70256 24.4454 4.67777 24.2547C4.65298 24.0639 4.66616 23.8702 4.71655 23.6846C4.76694 23.499 4.85354 23.3252 4.97138 23.1732C5.08922 23.0212 5.23595 22.894 5.40315 22.7989L6.74481 22.026C6.33203 21.0455 6.0553 20.0132 5.92231 18.9577H4.37502C3.98825 18.9577 3.61731 18.804 3.34382 18.5305C3.07033 18.2571 2.91669 17.8861 2.91669 17.4993C2.91669 17.1126 3.07033 16.7416 3.34382 16.4682C3.61731 16.1947 3.98825 16.041 4.37502 16.041H5.92377C6.05583 14.9857 6.33157 13.9533 6.74335 12.9727L5.4046 12.1998C5.07239 12.005 4.83069 11.6867 4.73226 11.3144C4.63383 10.9421 4.68665 10.546 4.8792 10.2125C5.07176 9.879 5.38841 9.6352 5.76005 9.5343C6.1317 9.4334 6.52816 9.48359 6.86294 9.67393L8.2046 10.4483C8.84627 9.60247 9.60314 8.84706 10.4504 8.20247L9.6746 6.86081C9.48427 6.52603 9.43407 6.12957 9.53497 5.75792C9.63587 5.38628 9.87967 5.06963 10.2132 4.87707C10.5467 4.68452 10.9428 4.6317 11.3151 4.73013C11.6874 4.82856 12.0057 5.07026 12.2004 5.40247L12.9734 6.74414C13.9538 6.33136 14.9862 6.05463 16.0417 5.92164V4.37435C16.0417 3.98757 16.1953 3.61664 16.4688 3.34315C16.7423 3.06966 17.1132 2.91602 17.5 2.91602ZM17.5 19.1837L10.7567 23.0775C11.4077 23.8643 12.1915 24.5311 13.0725 25.0477L13.179 25.1104C14.4965 25.8576 15.9854 26.2501 17.5 26.2493C18.9146 26.2493 20.2504 25.9139 21.4331 25.3175L21.929 25.0477C22.8096 24.5306 23.5929 23.8633 24.2434 23.076L17.5 19.1837ZM16.0417 8.87039C15.1777 9.01624 14.3405 9.29105 13.5581 9.6856L13.179 9.88977L13.0725 9.95102C11.9132 10.6312 10.9261 11.5694 10.1879 12.6927L9.95169 13.0718L9.89044 13.1783C9.14268 14.4957 8.74973 15.9846 8.75002 17.4993C8.75002 18.4181 8.89148 19.3077 9.15544 20.1389L9.29689 20.5516L16.0417 16.6579V8.87039ZM18.9584 8.87039V16.6579L25.7031 20.5516C26.0657 19.5749 26.2509 18.5412 26.25 17.4993C26.25 16.0848 25.9146 14.7489 25.3181 13.5662L25.1096 13.1783L25.0629 13.0981L25.0484 13.0718C24.3682 11.9125 23.43 10.9254 22.3067 10.1873L21.8211 9.88831C21.0632 9.45809 20.2452 9.1435 19.3944 8.95497L18.9584 8.87039Z" fill="white"/>
</svg>
