<svg width="45" height="45" viewBox="0 0 45 45" fill="none" xmlns="http://www.w3.org/2000/svg">
<path fill-rule="evenodd" clip-rule="evenodd" d="M36.4509 8.53421C34.6307 6.71317 32.4683 5.27014 30.0882 4.28817C27.7081 3.3062 25.1573 2.8047 22.5826 2.81253C11.7773 2.81253 2.98125 11.5647 2.97686 22.3242C2.97208 25.7503 3.87518 29.1165 5.59424 32.0801L2.8125 42.1875L13.2056 39.4743C16.0824 41.0329 19.3028 41.8485 22.5747 41.8474H22.5826C33.387 41.8474 42.1822 33.0944 42.1875 22.3357C42.194 19.7698 41.6902 17.2282 40.7054 14.8588C39.7205 12.4894 38.2743 10.3395 36.4509 8.53421ZM22.5826 38.5541H22.5756C19.6588 38.555 16.7951 37.7744 14.2822 36.2936L13.6872 35.942L7.51992 37.5522L9.16611 31.5677L8.77852 30.9525C7.1476 28.3704 6.28352 25.3783 6.28682 22.3242C6.28682 13.3831 13.6002 6.10843 22.5888 6.10843C26.9007 6.10073 31.0391 7.80606 34.0937 10.8494C37.1484 13.8926 38.8692 18.0246 38.8775 22.3366C38.874 31.2785 31.5642 38.5541 22.5826 38.5541ZM31.5202 26.4085C31.0307 26.1642 28.6198 24.9847 28.1733 24.8221C27.7269 24.6595 27.3973 24.5778 27.0712 25.0664C26.7451 25.5551 25.8056 26.6485 25.5199 26.9781C25.2343 27.3076 24.9486 27.3437 24.4591 27.0993C23.9695 26.855 22.3901 26.3408 20.5189 24.6797C19.0626 23.3868 18.08 21.7908 17.7943 21.303C17.5087 20.8152 17.7636 20.5506 18.0088 20.308C18.2294 20.0892 18.4983 19.7385 18.7436 19.4537C18.9888 19.169 19.0705 18.9651 19.2331 18.6399C19.3957 18.3147 19.3148 18.0299 19.1927 17.7865C19.0705 17.543 18.0905 15.1427 17.6827 14.1662C17.2846 13.2153 16.8812 13.3445 16.5806 13.3295C16.2949 13.3155 15.9653 13.3119 15.641 13.3119C15.3931 13.3184 15.1491 13.3759 14.9244 13.4808C14.6997 13.5858 14.4991 13.7359 14.335 13.9219C13.8858 14.4106 12.6202 15.5918 12.6202 17.9895C12.6202 20.3871 14.378 22.7075 14.6206 23.0326C14.8632 23.3578 18.0747 28.2824 22.9887 30.3944C23.9011 30.7851 24.8335 31.1278 25.7818 31.4209C26.9552 31.7918 28.023 31.74 28.8668 31.6143C29.8081 31.4745 31.7672 30.4348 32.1741 29.2957C32.5811 28.1567 32.5819 27.1811 32.4598 26.9781C32.3376 26.775 32.0106 26.652 31.5202 26.4085Z" fill="white"/>
</svg>
