<svg width="35" height="35" viewBox="0 0 35 35" fill="none" xmlns="http://www.w3.org/2000/svg">
<path d="M2.91663 17.7968C2.91663 14.4587 2.91663 12.7904 3.67496 11.4079C4.43038 10.0239 5.81433 9.16643 8.58079 7.44852L11.4975 5.63872C14.4214 3.8231 15.8841 2.91602 17.5 2.91602C19.1158 2.91602 20.577 3.8231 23.5025 5.63872L26.4191 7.44852C29.1856 9.16643 30.5695 10.0239 31.3264 11.4079C32.0833 12.7918 32.0833 14.4587 32.0833 17.7954V20.015C32.0833 25.7025 32.0833 28.5477 30.3741 30.3152C28.665 32.0827 25.916 32.0827 20.4166 32.0827H14.5833C9.08392 32.0827 6.3335 32.0827 4.62579 30.3152C2.91808 28.5477 2.91663 25.7039 2.91663 20.015V17.7968Z" stroke="white" stroke-width="3"/>
<path d="M17.5 21.875V26.25" stroke="white" stroke-width="3" stroke-linecap="round"/>
</svg>
