<svg width="16" height="16" viewBox="0 0 16 16" fill="none" xmlns="http://www.w3.org/2000/svg">
<path d="M3.5 7.5H13.5C13.6326 7.5 13.7598 7.55268 13.8536 7.64645C13.9473 7.74021 14 7.86739 14 8C14 8.13261 13.9473 8.25979 13.8536 8.35355C13.7598 8.44732 13.6326 8.5 13.5 8.5H3.5C3.36739 8.5 3.24021 8.44732 3.14645 8.35355C3.05268 8.25979 3 8.13261 3 8C3 7.86739 3.05268 7.74021 3.14645 7.64645C3.24021 7.55268 3.36739 7.5 3.5 7.5Z" fill="black"/>
<path d="M3.70699 7.99999L7.85399 12.146C7.94788 12.2399 8.00062 12.3672 8.00062 12.5C8.00062 12.6328 7.94788 12.7601 7.85399 12.854C7.76011 12.9479 7.63277 13.0006 7.49999 13.0006C7.36722 13.0006 7.23988 12.9479 7.14599 12.854L2.64599 8.35399C2.59943 8.30754 2.56249 8.25237 2.53728 8.19162C2.51207 8.13088 2.4991 8.06576 2.4991 7.99999C2.4991 7.93422 2.51207 7.8691 2.53728 7.80836C2.56249 7.74761 2.59943 7.69244 2.64599 7.64599L7.14599 3.14599C7.23988 3.0521 7.36722 2.99936 7.49999 2.99936C7.63277 2.99936 7.76011 3.0521 7.85399 3.14599C7.94788 3.23988 8.00062 3.36721 8.00062 3.49999C8.00062 3.63277 7.94788 3.7601 7.85399 3.85399L3.70699 7.99999Z" fill="black"/>
</svg>
