<svg width="36" height="37" viewBox="0 0 36 37" fill="none" xmlns="http://www.w3.org/2000/svg">
<g filter="url(#filter0_d_1_104)">
<path d="M23.4686 4.0623C24.9177 4.06663 26.3063 4.64423 27.331 5.66896C28.3558 6.69369 28.9334 8.08227 28.9377 9.53145V20.4686C28.9334 21.9177 28.3558 23.3063 27.331 24.331C26.3063 25.3558 24.9177 25.9334 23.4686 25.9377H12.5314C11.0823 25.9334 9.69369 25.3558 8.66896 24.331C7.64423 23.3063 7.06663 21.9177 7.0623 20.4686V9.53145C7.06663 8.08227 7.64423 6.69369 8.66896 5.66896C9.69369 4.64423 11.0823 4.06663 12.5314 4.0623H23.4686ZM23.4686 1.875H12.5314C8.32031 1.875 4.875 5.32031 4.875 9.53145V20.4686C4.875 24.6797 8.32031 28.125 12.5314 28.125H23.4686C27.6797 28.125 31.125 24.6797 31.125 20.4686V9.53145C31.125 5.32031 27.6797 1.875 23.4686 1.875Z" fill="white"/>
<path d="M25.1092 9.53149C24.7847 9.53149 24.4675 9.43527 24.1977 9.255C23.9279 9.07473 23.7176 8.81849 23.5934 8.51871C23.4693 8.21892 23.4368 7.88905 23.5001 7.5708C23.5634 7.25255 23.7196 6.96022 23.9491 6.73077C24.1785 6.50133 24.4709 6.34507 24.7891 6.28177C25.1074 6.21847 25.4372 6.25095 25.737 6.37513C26.0368 6.49931 26.293 6.70959 26.4733 6.97939C26.6536 7.24919 26.7498 7.56638 26.7498 7.89087C26.7503 8.10645 26.7081 8.32 26.6259 8.51926C26.5436 8.71852 26.4227 8.89956 26.2703 9.052C26.1179 9.20444 25.9368 9.32527 25.7376 9.40755C25.5383 9.48984 25.3248 9.53196 25.1092 9.53149ZM18 10.6249C18.8653 10.6249 19.7112 10.8815 20.4307 11.3622C21.1502 11.843 21.711 12.5263 22.0422 13.3257C22.3733 14.1252 22.4599 15.0049 22.2911 15.8536C22.1223 16.7023 21.7056 17.4819 21.0937 18.0938C20.4818 18.7057 19.7023 19.1224 18.8536 19.2912C18.0049 19.46 17.1251 19.3734 16.3257 19.0422C15.5262 18.7111 14.8429 18.1503 14.3622 17.4308C13.8814 16.7113 13.6248 15.8654 13.6248 15C13.626 13.8401 14.0874 12.7279 14.9076 11.9077C15.7279 11.0875 16.84 10.6261 18 10.6249ZM18 8.43755C16.7021 8.43755 15.4333 8.82243 14.3541 9.54353C13.2749 10.2646 12.4337 11.2895 11.937 12.4887C11.4403 13.6878 11.3104 15.0073 11.5636 16.2803C11.8168 17.5533 12.4418 18.7227 13.3596 19.6404C14.2774 20.5582 15.4467 21.1832 16.7197 21.4365C17.9927 21.6897 19.3122 21.5597 20.5114 21.063C21.7105 20.5663 22.7354 19.7252 23.4565 18.646C24.1776 17.5668 24.5625 16.298 24.5625 15C24.5625 13.2596 23.8711 11.5904 22.6404 10.3597C21.4097 9.12895 19.7405 8.43755 18 8.43755Z" fill="white"/>
</g>
<defs>
<filter id="filter0_d_1_104" x="-1" y="0" width="38" height="38" filterUnits="userSpaceOnUse" color-interpolation-filters="sRGB">
<feFlood flood-opacity="0" result="BackgroundImageFix"/>
<feColorMatrix in="SourceAlpha" type="matrix" values="0 0 0 0 0 0 0 0 0 0 0 0 0 0 0 0 0 0 127 0" result="hardAlpha"/>
<feOffset dy="4"/>
<feGaussianBlur stdDeviation="2"/>
<feComposite in2="hardAlpha" operator="out"/>
<feColorMatrix type="matrix" values="0 0 0 0 0 0 0 0 0 0 0 0 0 0 0 0 0 0 0.25 0"/>
<feBlend mode="normal" in2="BackgroundImageFix" result="effect1_dropShadow_1_104"/>
<feBlend mode="normal" in="SourceGraphic" in2="effect1_dropShadow_1_104" result="shape"/>
</filter>
</defs>
</svg>
